<svg width="128" height="128" viewBox="0 0 128 128" version="1.1" xmlns="http://www.w3.org/2000/svg" xmlns:xlink="http://www.w3.org/1999/xlink">
<title>Leapfrog Grid</title>
<desc>Created using Figma</desc>
<g id="Canvas" transform="matrix(2 0 0 2 600 584)">
<clipPath id="clip-0" clip-rule="evenodd">
<path d="M -300 -292L -236 -292L -236 -228L -300 -228L -300 -292Z" fill="#FFFFFF"/>
</clipPath>
<g id="Leapfrog Grid" clip-path="url(#clip-0)">
<path d="M -300 -292L -236 -292L -236 -228L -300 -228L -300 -292Z" fill="#FFFFFF"/>
<g id="Bot Icon">
<g id="Vector">
<use xlink:href="#path0_fill" transform="translate(-279.046 -277.935)" fill="#88D7F8"/>
</g>
<g id="Vector">
<use xlink:href="#path1_stroke" transform="translate(-282 -278)" fill="#1075BA"/>
</g>
<g id="Ellipse">
<use xlink:href="#path2_fill" transform="matrix(0.698398 0.715709 -0.715709 0.698398 -274.82 -274.617)" fill="#FFFFFF"/>
</g>
<g id="Vector 2">
<use xlink:href="#path3_fill" transform="translate(-283.814 -265.625)" fill="#88D7F8"/>
</g>
<g id="Union">
<use xlink:href="#path4_fill" transform="translate(-286.735 -267.191)" fill="#1476BD"/>
</g>
<g id="Vector">
<use xlink:href="#path5_fill" transform="translate(-281.312 -263.217)" fill="#1476BD"/>
</g>
<g id="Ellipse 2">
<use xlink:href="#path6_fill" transform="translate(-279.55 -261.454)" fill="#FFFFFF"/>
</g>
<g id="Vector">
<use xlink:href="#path5_fill" transform="matrix(-1 0 0 1 -254.604 -263.217)" fill="#1476BD"/>
</g>
<g id="Ellipse 2.2">
<use xlink:href="#path7_fill" transform="translate(-262.608 -261.459)" fill="#FFFFFF"/>
</g>
<g id="Mouth">
<g id="Ellipse 2.2">
<use xlink:href="#path8_fill" transform="translate(-275.637 -245.334)" fill="#1075BA"/>
</g>
<g id="Ellipse 2.3">
<use xlink:href="#path8_fill" transform="translate(-271.435 -245.334)" fill="#1075BA"/>
</g>
<g id="Ellipse 2.4">
<use xlink:href="#path8_fill" transform="translate(-267.233 -245.334)" fill="#1075BA"/>
</g>
<g id="Ellipse 2.5">
<use xlink:href="#path8_fill" transform="translate(-263.03 -245.334)" fill="#1075BA"/>
</g>
<g id="Ellipse 2.6">
<use xlink:href="#path8_fill" transform="translate(-275.637 -241.334)" fill="#1075BA"/>
</g>
<g id="Ellipse 2.7">
<use xlink:href="#path8_fill" transform="translate(-271.435 -241.334)" fill="#1075BA"/>
</g>
<g id="Ellipse 2.8">
<use xlink:href="#path8_fill" transform="translate(-267.233 -241.334)" fill="#1075BA"/>
</g>
<g id="Ellipse 2.9">
<use xlink:href="#path8_fill" transform="translate(-263.03 -241.334)" fill="#1075BA"/>
</g>
</g>
<g id="RIGHT ANTENNA">
<g id="Line">
<use xlink:href="#path9_stroke" transform="matrix(0.707107 -0.707107 0.707107 0.707107 -258.043 -275.582)" fill="#1075BA"/>
</g>
<g id="Ellipse 3">
<use xlink:href="#path10_fill" transform="translate(-252.015 -288.375)" fill="#88D7F8"/>
<use xlink:href="#path11_stroke" transform="translate(-252.015 -288.375)" fill="#1075BA"/>
</g>
<g id="Ellipse 2.5">
<use xlink:href="#path12_fill" transform="matrix(-0.697373 0.716709 -0.716709 -0.697373 -248.907 -286.86)" fill="#FFFFFF"/>
</g>
</g>
<g id="LEFT ANTENNA">
<g id="Line">
<use xlink:href="#path9_stroke" transform="matrix(-0.707107 -0.707107 -0.707107 0.707107 -277.265 -275.582)" fill="#1075BA"/>
</g>
<g id="Ellipse 3">
<use xlink:href="#path10_fill" transform="matrix(-1 0 0 1 -283.293 -288.375)" fill="#88D7F8"/>
<use xlink:href="#path11_stroke" transform="matrix(-1 0 0 1 -283.293 -288.375)" fill="#1075BA"/>
</g>
<g id="Ellipse 2.6">
<use xlink:href="#path12_fill" transform="matrix(-0.697373 0.716709 -0.716709 -0.697373 -285.851 -286.86)" fill="#FFFFFF"/>
</g>
</g>
</g>
<g id="Bot Icon">
<g id="Vector">
<use xlink:href="#path0_fill" transform="translate(-279.046 -277.935)" fill="#B4AEA2"/>
</g>
<g id="Vector">
<use xlink:href="#path1_stroke" transform="translate(-282 -278)" fill="#2A4542"/>
</g>
<g id="Ellipse">
<use xlink:href="#path2_fill" transform="matrix(0.698398 0.715709 -0.715709 0.698398 -274.82 -274.617)" fill="#FFFFFF"/>
</g>
<g id="Vector 2">
<use xlink:href="#path3_fill" transform="translate(-283.814 -265.625)" fill="#E36150"/>
</g>
<g id="Union">
<use xlink:href="#path4_fill" transform="translate(-286.735 -267.191)" fill="#2A4542"/>
</g>
<g id="Vector">
<use xlink:href="#path5_fill" transform="translate(-281.312 -263.217)" fill="#2A4542"/>
</g>
<g id="Ellipse 2">
<use xlink:href="#path6_fill" transform="translate(-279.55 -261.454)" fill="#FFFFFF"/>
</g>
<g id="Vector">
<use xlink:href="#path5_fill" transform="matrix(-1 0 0 1 -254.604 -263.217)" fill="#2A4542"/>
</g>
<g id="Ellipse 2.2">
<use xlink:href="#path7_fill" transform="translate(-262.608 -261.459)" fill="#FFFFFF"/>
</g>
<g id="Mouth">
<g id="Ellipse 2.2">
<use xlink:href="#path8_fill" transform="translate(-275.637 -245.334)" fill="#2A4542"/>
</g>
<g id="Ellipse 2.3">
<use xlink:href="#path8_fill" transform="translate(-271.435 -245.334)" fill="#2A4542"/>
</g>
<g id="Ellipse 2.4">
<use xlink:href="#path8_fill" transform="translate(-267.233 -245.334)" fill="#2A4542"/>
</g>
<g id="Ellipse 2.5">
<use xlink:href="#path8_fill" transform="translate(-263.03 -245.334)" fill="#2A4542"/>
</g>
<g id="Ellipse 2.6">
<use xlink:href="#path8_fill" transform="translate(-275.637 -241.334)" fill="#2A4542"/>
</g>
<g id="Ellipse 2.7">
<use xlink:href="#path8_fill" transform="translate(-271.435 -241.334)" fill="#2A4542"/>
</g>
<g id="Ellipse 2.8">
<use xlink:href="#path8_fill" transform="translate(-267.233 -241.334)" fill="#2A4542"/>
</g>
<g id="Ellipse 2.9">
<use xlink:href="#path8_fill" transform="translate(-263.03 -241.334)" fill="#2A4542"/>
</g>
</g>
<g id="RIGHT ANTENNA">
<g id="Line">
<use xlink:href="#path9_stroke" transform="matrix(0.707107 -0.707107 0.707107 0.707107 -258.043 -275.582)" fill="#2A4542"/>
</g>
<g id="Ellipse 3">
<use xlink:href="#path10_fill" transform="translate(-252.015 -288.375)" fill="#B8B8B8"/>
<use xlink:href="#path11_stroke" transform="translate(-252.015 -288.375)" fill="#2A4542"/>
</g>
<g id="Ellipse 2.5">
<use xlink:href="#path12_fill" transform="matrix(-0.697373 0.716709 -0.716709 -0.697373 -248.907 -286.86)" fill="#FFFFFF"/>
</g>
</g>
<g id="LEFT ANTENNA">
<g id="Line">
<use xlink:href="#path9_stroke" transform="matrix(-0.707107 -0.707107 -0.707107 0.707107 -277.265 -275.582)" fill="#2A4542"/>
</g>
<g id="Ellipse 3">
<use xlink:href="#path10_fill" transform="matrix(-1 0 0 1 -283.293 -288.375)" fill="#B8B8B8"/>
<use xlink:href="#path11_stroke" transform="matrix(-1 0 0 1 -283.293 -288.375)" fill="#2A4542"/>
</g>
<g id="Ellipse 2.6">
<use xlink:href="#path12_fill" transform="matrix(-0.697373 0.716709 -0.716709 -0.697373 -285.851 -286.86)" fill="#FFFFFF"/>
</g>
</g>
</g>
</g>
</g>
<defs>
<path id="path0_fill" d="M 24.171 42.3101L 1.29603 42.3101L 0.0460321 12.0415C 0.0460321 12.0415 -1.45395 -1.74993 12.671 0.186345C 26.796 2.12262 25.046 12.0415 25.046 12.0415L 24.171 42.3101Z"/>
<path id="path1_stroke" d="M 0.9375 42L -0.0620121 42.0312C -0.0471894 42.5056 0.298967 42.9041 0.766539 42.9853L 0.9375 42ZM 27.125 42L 27.2769 42.9884C 27.7539 42.9151 28.1105 42.5116 28.1246 42.0292L 27.125 42ZM 28 12L 28.9996 12.0292C 29.0002 12.009 29.0001 11.9889 28.9995 11.9688L 28 12ZM 0 12L -0.999512 11.9688C -1.00016 11.9896 -1.00016 12.0104 -0.999512 12.0312L 0 12ZM 0.766539 42.9853C 10.5759 44.6833 16.4834 44.6444 27.2769 42.9884L 26.9731 41.0116C 16.3243 42.6507 10.7407 42.6901 1.10846 41.0147L 0.766539 42.9853ZM 28.1246 42.0292L 28.9996 12.0292L 27.0004 11.9708L 26.1254 41.9708L 28.1246 42.0292ZM 28 12C 28.9995 11.9688 28.9995 11.9682 28.9995 11.9675C 28.9995 11.9672 28.9994 11.9665 28.9994 11.966C 28.9994 11.9653 28.9993 11.9636 28.9993 11.9621C 28.9992 11.9599 28.999 11.9555 28.9989 11.9511C 28.9986 11.9438 28.998 11.9305 28.9973 11.9161C 28.996 11.8902 28.9936 11.8468 28.9901 11.7963C 28.9835 11.7016 28.971 11.5513 28.951 11.3727C 28.9123 11.0288 28.8363 10.5081 28.7051 9.90969C 28.4466 8.74182 27.9199 7.09 26.9673 5.48616C 24.9957 2.19444 21.1754 -1 14 -1L 14 1C 20.4496 1 23.6293 3.80556 25.2515 6.51384C 26.0957 7.91 26.5144 9.25818 26.752 10.3403C 26.8688 10.8669 26.9286 11.2837 26.9635 11.596C 26.9804 11.7456 26.9893 11.8531 26.9948 11.9342C 26.9974 11.9716 26.9988 11.9955 26.9997 12.0151C 27.0001 12.0233 27.0003 12.0273 27.0005 12.0315C 27.0005 12.0329 27.0006 12.0342 27.0006 12.0335C 27.0006 12.0335 27.0005 12.0329 27.0005 12.0329C 27.0005 12.0327 27.0005 12.0323 27.0005 12.0322C 27.0005 12.0317 27.0005 12.0312 28 12ZM 14 -1C 6.82463 -1 3.00434 2.19444 1.03274 5.48616C 0.0801021 7.09 -0.446566 8.74182 -0.70506 9.90969C -0.836311 10.5081 -0.91225 11.0288 -0.951023 11.3727C -0.97098 11.5513 -0.983516 11.7016 -0.990083 11.7963C -0.99355 11.8468 -0.995995 11.8902 -0.997282 11.9161C -0.997994 11.9305 -0.998572 11.9438 -0.998867 11.9511C -0.999043 11.9555 -0.999209 11.9599 -0.999288 11.9621C -0.99934 11.9636 -0.999397 11.9653 -0.999422 11.966C -0.999441 11.9665 -0.999463 11.9672 -0.999472 11.9675C -0.999493 11.9682 -0.999512 11.9688 0 12C 0.999512 12.0312 0.999496 12.0317 0.999481 12.0322C 0.999478 12.0323 0.999464 12.0327 0.999458 12.0329C 0.999458 12.0329 0.999437 12.0335 0.999437 12.0335C 0.999413 12.0342 0.999458 12.0329 0.999514 12.0315C 0.999684 12.0273 0.999852 12.0233 1.00027 12.0151C 1.00123 11.9955 1.00255 11.9716 1.00516 11.9342C 1.01074 11.8531 1.01956 11.7456 1.03647 11.596C 1.07143 11.2837 1.13123 10.8669 1.24803 10.3403C 1.48563 9.25818 1.90427 7.91 2.74851 6.51384C 4.37066 3.80556 7.55037 1 14 1L 14 -1ZM -0.999512 12.0312L -0.0620121 42.0312L 1.93701 41.9688L 0.999512 11.9688L -0.999512 12.0312Z"/>
<path id="path2_fill" d="M 2.625 2.44235C 2.625 3.79122 2.03737 4.8847 1.3125 4.8847C 0.587626 4.8847 0 3.79122 0 2.44235C 0 1.09348 0.587626 0 1.3125 0C 2.03737 0 2.625 1.09348 2.625 2.44235Z"/>
<path id="path3_fill" d="M 12.8769 0.625L 0.376891 0C -0.101582 1.61501 -0.149112 2.42852 0.376891 3.625L 3.87689 11L 12.1269 11L 14.1269 3.625L 17.2519 3.625L 19.6269 11L 27.8769 11L 31.1894 3.625L 33.0644 3.625L 33.3769 0.1875L 12.8769 0.625Z"/>
<path id="path4_fill" fill-rule="evenodd" d="M 18.1165 6.23778C 17.9929 9.17503 17.0109 10.973 15.47 13.399C 15.3292 13.6206 15.1071 13.7779 14.8513 13.837C 11.7837 14.5418 9.90149 14.5891 6.87991 13.832C 6.68097 13.7816 6.50238 13.6711 6.36838 13.5156C 5.32071 12.2998 4.44424 11.2741 3.75369 10.0685C 3.17242 9.03899 2.7088 7.82033 2.36578 6.23778L 1.37591 6.23778C 0.974882 6.23778 0.612608 5.99818 0.455687 5.6291C -0.134951 4.24025 -0.165346 2.8509 0.446196 1.30699C 0.570189 0.994002 0.843321 0.764388 1.173 0.696059C 6.84674 -0.466753 10.5781 -0.0655379 15.9244 1.10988C 16.8276 0.840063 17.791 0.640325 18.7348 0.660506C 19.6786 0.640324 20.642 0.840047 21.5453 1.10988C 26.8916 -0.0655379 30.6229 -0.466753 36.2967 0.696059C 36.6263 0.764388 36.8995 0.994002 37.0235 1.30699C 37.635 2.8509 37.6046 4.24025 37.014 5.6291C 36.857 5.99818 36.4948 6.23778 36.0938 6.23778L 35.1039 6.23778C 34.7609 7.82033 34.2972 9.03899 33.716 10.0685C 33.0254 11.2741 32.1489 12.2998 31.1013 13.5156C 30.9673 13.6711 30.7887 13.7816 30.5898 13.832C 27.5682 14.5891 25.6859 14.5418 22.6183 13.837C 22.3626 13.7779 22.1404 13.6206 21.9997 13.399C 20.4588 10.973 19.4768 9.17503 19.3531 6.23778L 18.1165 6.23778ZM 2.09115 4.23778C 1.9599 3.69884 1.96634 3.1541 2.13687 2.54146C 7.25903 1.54158 10.5503 1.9612 15.7524 3.12013C 15.9305 3.15977 16.116 3.14995 16.2889 3.09172C 17.0795 2.82231 17.9366 2.65816 18.7347 2.65022C 19.5328 2.65816 20.3901 2.82231 21.1808 3.09172C 21.3537 3.14995 21.5392 3.15977 21.7172 3.12013C 26.9194 1.9612 30.2106 1.54158 35.3328 2.54146C 35.5033 3.1541 35.5098 3.69884 35.3785 4.23778L 34.2812 4.23778C 33.7955 4.23778 33.3801 4.58681 33.2962 5.06523C 32.9788 6.89772 32.5758 8.03474 31.9771 9.08028C 31.4296 10.0525 30.7341 10.8771 29.7928 11.9702C 27.3654 12.5663 25.9736 12.5375 23.4678 11.9795C 21.9366 9.55479 21.2142 8.17589 21.3432 5.27034C 21.352 4.99962 21.2507 4.73689 21.0623 4.54228C 20.8739 4.34767 20.6146 4.23778 20.3437 4.23778L 17.1259 4.23778C 16.8551 4.23778 16.5958 4.34767 16.4074 4.54228C 16.219 4.73689 16.1176 4.99962 16.1265 5.27034C 16.2555 8.17589 15.533 9.55479 14.0018 11.9795C 11.4961 12.5375 10.1043 12.5663 7.67688 11.9702C 6.73562 10.8771 6.04001 10.0525 5.49252 9.08028C 4.89386 8.03474 4.49087 6.89772 4.17343 5.06523C 4.0896 4.58681 3.67413 4.23778 3.18841 4.23778L 2.09115 4.23778Z"/>
<path id="path5_fill" d="M 8.52867 0.800345C 5.67799 0.0978746 3.475 -0.15949 0.958182 0.0972801C 0.422364 0.151945 0.0440484 0.643311 0.125876 1.17566C 0.47812 3.46726 1.08932 4.67822 2.36735 6.23335C 2.49325 6.38655 2.66472 6.49761 2.8562 6.54913C 4.62395 7.02483 5.73493 7.02089 7.49739 6.55386C 7.70225 6.49958 7.88501 6.37938 8.00571 6.20518C 8.73774 5.14861 9.32393 3.55183 9.24342 1.64477C 9.22612 1.23492 8.92697 0.898493 8.52867 0.800345Z"/>
<path id="path6_fill" d="M 1.82263 0.911316C 1.82263 1.41462 1.41462 1.82263 0.911316 1.82263C 0.40801 1.82263 0 1.41462 0 0.911316C 0 0.40801 0.40801 0 0.911316 0C 1.41462 0 1.82263 0.40801 1.82263 0.911316Z"/>
<path id="path7_fill" d="M 1.82263 0.911316C 1.82263 1.41462 1.41462 1.82263 0.911316 1.82263C 0.40801 1.82263 0 1.41462 0 0.911316C 0 0.40801 0.40801 0 0.911316 0C 1.41462 0 1.82263 0.40801 1.82263 0.911316Z"/>
<path id="path8_fill" d="M 2.66742 1.33371C 2.66742 2.0703 2.0703 2.66742 1.33371 2.66742C 0.597122 2.66742 0 2.0703 0 1.33371C 0 0.597122 0.597122 0 1.33371 0C 2.0703 0 2.66742 0.597122 2.66742 1.33371Z"/>
<path id="path9_stroke" d="M -0.0550264 0.476389C -0.606474 0.506779 -1.02888 0.978452 -0.998485 1.5299C -0.968095 2.08135 -0.496422 2.50375 0.0550264 2.47336L -0.0550264 0.476389ZM 11.4387 0.970498C 11.9747 0.837337 12.3013 0.294882 12.1681 -0.241109C 12.035 -0.7771 11.4925 -1.10366 10.9565 -0.970498L 11.4387 0.970498ZM 0.0550264 2.47336C 5.00294 2.20033 7.6344 1.91327 11.4387 0.970498L 10.9565 -0.970498C 7.28478 -0.0559325 4.84014 0.206967 -0.0550264 0.476389L 0.0550264 2.47336Z"/>
<path id="path10_fill" d="M 5.5 2.75C 5.5 4.26878 4.26878 5.5 2.75 5.5C 1.23122 5.5 0 4.26878 0 2.75C 0 1.23122 1.23122 0 2.75 0C 4.26878 0 5.5 1.23122 5.5 2.75Z"/>
<path id="path11_stroke" d="M 4.5 2.75C 4.5 3.7165 3.7165 4.5 2.75 4.5L 2.75 6.5C 4.82107 6.5 6.5 4.82107 6.5 2.75L 4.5 2.75ZM 2.75 4.5C 1.7835 4.5 1 3.7165 1 2.75L -1 2.75C -1 4.82107 0.678932 6.5 2.75 6.5L 2.75 4.5ZM 1 2.75C 1 1.7835 1.7835 1 2.75 1L 2.75 -1C 0.678932 -1 -1 0.678932 -1 2.75L 1 2.75ZM 2.75 1C 3.7165 1 4.5 1.7835 4.5 2.75L 6.5 2.75C 6.5 0.678932 4.82107 -1 2.75 -1L 2.75 1Z"/>
<path id="path12_fill" d="M 1.94707 0.616724C 1.94707 0.957331 1.5112 1.23345 0.973534 1.23345C 0.435866 1.23345 0 0.957331 0 0.616724C 0 0.276117 0.435866 0 0.973534 0C 1.5112 0 1.94707 0.276117 1.94707 0.616724Z"/>
</defs>
</svg>
